<?xml version="1.0" encoding="utf-8"?>
<!-- Generator: Adobe Illustrator 28.1.0, SVG Export Plug-In . SVG Version: 6.00 Build 0)  -->
<svg version="1.1" id="Layer_1" xmlns="http://www.w3.org/2000/svg" xmlns:xlink="http://www.w3.org/1999/xlink" x="0px" y="0px"
	 viewBox="0 0 120 50" style="enable-background:new 0 0 120 50;" xml:space="preserve">
<style type="text/css">
	.st0{fill:#FFFFFF;}
	.st1{fill:#A72C32;}
	.st2{fill:#231F20;}
</style>
<g>
	<path class="st0" d="M22.5,6.2C14.1,6.2,7.2,13.7,7.2,23s6.9,16.8,15.3,16.8h75.2c8.4,0,15.3-7.5,15.3-16.8S106.1,6.2,97.7,6.2
		C97.7,6.2,22.5,6.2,22.5,6.2z"/>
	<g>
		<path class="st1" d="M31,20.4v0.2c0,0.1,0,0.2,0,0.2c0,2.4-0.8,4.4-2.3,6s-3.4,2.4-5.6,2.4s-4.1-0.8-5.6-2.4
			c-0.8-0.8-1.3-1.7-1.7-2.7c-0.4-1-0.6-2.1-0.6-3.3c0-1.1,0.2-2.2,0.6-3.2c0.2-0.5,0.5-1,0.8-1.4s0.6-0.9,1.1-1.3
			c0.8-0.8,1.6-1.4,2.5-1.8c1-0.4,2-0.6,3.1-0.6c1.7,0,3.1,0.4,4.3,1.3c1.2,0.8,2.1,2.1,2.8,3.7h-3.6c-0.4-0.6-1-1-1.6-1.3
			s-1.3-0.4-2-0.4c-1.3,0-2.4,0.5-3.4,1.5c-0.9,1-1.4,2.2-1.4,3.6s0.5,2.6,1.4,3.6s2.1,1.5,3.4,1.5c0.9,0,1.8-0.3,2.5-0.8
			c0.8-0.5,1.3-1.2,1.7-2.1h-6v-2.7C21.4,20.4,31,20.4,31,20.4z"/>
		<rect x="32.8" y="21.5" class="st2" width="7.7" height="2.6"/>
		<path class="st2" d="M56.5,17.6h-3.7c-0.5-0.6-1-1.1-1.6-1.4s-1.3-0.5-2-0.5c-1.3,0-2.4,0.5-3.3,1.5c-0.9,1-1.4,2.2-1.4,3.6
			s0.4,2.6,1.4,3.6c0.9,1,2.1,1.5,3.4,1.5c0.7,0,1.4-0.2,2-0.5s1.1-0.7,1.5-1.3h3.6c-0.4,0.8-0.8,1.5-1.3,2.1s-1,1.1-1.6,1.5
			c-1.2,0.8-2.6,1.2-4.3,1.2c-2.2,0-4-0.8-5.5-2.4c-0.5-0.5-0.9-1.1-1.2-1.7s-0.6-1.3-0.8-2s-0.2-1.5-0.2-2.2c0-1.1,0.2-2.2,0.6-3.2
			c0.4-1,1-1.9,1.8-2.7c0.7-0.7,1.5-1.3,2.5-1.7c0.9-0.4,1.9-0.6,3-0.6c0.8,0,1.6,0.1,2.3,0.3c0.7,0.2,1.4,0.5,1.9,0.9
			c0.6,0.4,1.1,0.9,1.6,1.6C55.7,16,56.1,16.8,56.5,17.6"/>
		<polyline class="st2" points="60.1,19.3 60.2,12.9 69.8,12.9 69.8,15.7 63.1,15.7 63.1,19.3 68.4,19.3 68.4,22.1 63.1,22.1 
			63.1,26.1 69.8,26.1 69.8,28.9 60.2,28.9 60.1,22.1 		"/>
		<path class="st2" d="M72,20.3v-7.4h3.6h2.3c1.8,0,3.2,0.4,4.2,1.3s1.5,2.1,1.5,3.7c0,0.6-0.1,1.1-0.2,1.5
			c-0.2,0.4-0.4,0.9-0.8,1.3c-0.3,0.4-0.8,0.8-1.4,1.1s-1.2,0.5-1.8,0.7l3.1,6.5h-3.2l-3.1-6.4L75,22.7V29h-3v-6.2 M75,20.3h0.6
			c0.7,0,1.5-0.1,2.4-0.2c0.8-0.1,1.4-0.3,1.7-0.5c0.4-0.3,0.6-0.5,0.7-0.7s0.2-0.5,0.2-0.9c0-0.9-0.3-1.5-0.8-1.9
			c-0.2-0.1-0.5-0.2-0.9-0.3c-0.3-0.1-0.8-0.2-1.3-0.2c-0.5-0.1-1-0.1-1.4-0.1h-1.1L75,20.3L75,20.3z"/>
		<polygon class="st2" points="93.2,12.9 93.2,15.7 90.3,15.7 90.3,28.9 87.3,28.9 87.3,15.7 84.4,15.7 84.4,12.9 		"/>
		<path class="st1" d="M97.6,41.4H22.4c-9.3,0-16.9-8.3-16.9-18.4S13.1,4.6,22.4,4.6h75.2c9.3,0,16.9,8.3,16.9,18.4
			S106.9,41.4,97.6,41.4z M22.4,6.2C14,6.2,7.1,13.7,7.1,23S14,39.8,22.4,39.8h75.2c8.4,0,15.3-7.5,15.3-16.8S106,6.2,97.6,6.2
			C97.6,6.2,22.4,6.2,22.4,6.2z"/>
		<path class="st2" d="M95.4,18c0,0,4.8-6.5,7.4-4.7c0,0,2.2,3.5-3.5,8.9c0,0-3,4,1.4,2c0,0,3.9-2.8,1.4,0.8c0,0-4.5,5.4-7,2.3
			c0,0-2.7-2.4,3.4-8.5c0,0,3.6-3.3-0.5-1.6C97.9,17.3,93.4,20.1,95.4,18"/>
		<path class="st1" d="M106.4,9.9c-1.1,1.5-3.1,1.8-4.4,0.6c-1.3-1.2-1.5-3.3-0.3-4.8c1.1-1.5,3.1-1.8,4.4-0.6
			C107.4,6.2,107.5,8.4,106.4,9.9"/>
		<path class="st0" d="M103.8,6.8c-0.2,0.3-0.6,0.3-0.9,0.1c-0.3-0.2-0.3-0.7-0.1-1c0.2-0.3,0.6-0.3,0.9-0.1
			C104,6.1,104,6.5,103.8,6.8"/>
		<rect x="35.7" y="34.7" class="st1" width="65.2" height="10.9"/>
		<path class="st0" d="M41.8,40.7C42,41,42,41.4,42,41.8c0,0.5-0.2,0.9-0.6,1.3c-0.3,0.4-0.8,0.6-1.4,0.6c-0.7,0-1.2-0.3-1.6-0.8
			c-0.4-0.6-0.6-1.1-0.5-1.7h1c0,0.4,0.1,0.7,0.3,1s0.5,0.4,0.8,0.4s0.5-0.1,0.7-0.2s0.3-0.3,0.3-0.5s0-0.4-0.1-0.5
			c-0.1-0.2-0.2-0.3-0.3-0.4c-0.2-0.1-0.5-0.2-0.7-0.3c-0.2,0-0.5-0.1-0.8-0.3c-0.3-0.2-0.6-0.4-0.8-0.7c-0.2-0.3-0.3-0.7-0.2-1.1
			c0-0.4,0.2-0.8,0.5-1.2s0.8-0.6,1.4-0.6c0.7,0,1.2,0.3,1.5,0.8s0.4,1,0.4,1.5h-1c0-0.3-0.1-0.6-0.2-0.8C40.5,38.1,40.3,38,40,38
			s-0.5,0.1-0.7,0.2c-0.1,0.2-0.2,0.3-0.2,0.5s0.1,0.4,0.2,0.5c0.1,0.1,0.3,0.2,0.4,0.3c0.2,0.1,0.4,0.2,0.7,0.2
			c0.3,0.1,0.5,0.2,0.8,0.4C41.4,40.1,41.6,40.4,41.8,40.7"/>
		<polygon class="st0" points="45.1,41.1 45.1,43.5 44.1,43.5 44.1,41.1 42.3,36.9 43.4,36.9 44.6,39.7 45.8,36.9 46.9,36.9 		"/>
		<path class="st0" d="M51.2,40.7c0.2,0.3,0.2,0.7,0.2,1.1c0,0.5-0.2,0.9-0.6,1.3c-0.3,0.4-0.8,0.6-1.4,0.6c-0.7,0-1.2-0.3-1.6-0.8
			c-0.4-0.6-0.6-1.1-0.5-1.7h1c0,0.4,0.1,0.7,0.3,1c0.2,0.3,0.5,0.4,0.8,0.4s0.5-0.1,0.7-0.2s0.3-0.3,0.3-0.5s0-0.4-0.1-0.5
			c-0.1-0.2-0.2-0.3-0.3-0.4c-0.2-0.1-0.5-0.2-0.7-0.3c-0.2,0-0.5-0.1-0.7-0.3c-0.3-0.2-0.6-0.4-0.8-0.7c-0.2-0.3-0.3-0.7-0.2-1.1
			c0-0.4,0.2-0.8,0.5-1.2c0.3-0.4,0.8-0.6,1.4-0.6c0.7,0,1.2,0.3,1.5,0.8s0.4,1,0.4,1.5h-1c0-0.3-0.1-0.6-0.2-0.8
			c-0.1-0.2-0.4-0.3-0.7-0.3c-0.3,0-0.5,0.1-0.7,0.2c-0.1,0.2-0.2,0.3-0.2,0.5s0.1,0.4,0.2,0.5s0.3,0.2,0.4,0.3
			c0.2,0.1,0.4,0.2,0.7,0.2c0.3,0.1,0.5,0.2,0.8,0.4C50.8,40.1,51,40.4,51.2,40.7"/>
		<polygon class="st0" points="54.1,38 54.1,43.5 53.2,43.5 53.2,38 51.6,38 51.6,36.9 55.7,36.9 55.7,38 		"/>
		<polygon class="st0" points="56.4,43.4 56.4,36.9 60,36.9 60,38 57.4,38 57.4,39.5 59.9,39.5 59.9,40.7 57.4,40.7 57.4,42.3 
			60.1,42.3 60.1,43.5 		"/>
		<polygon class="st0" points="64.7,43.5 64.7,39.8 64.7,39.8 63.8,43.5 62.7,43.5 61.8,39.9 61.8,39.9 61.8,43.4 60.8,43.5 
			60.8,36.9 61.9,36.9 63.2,41.8 64.5,36.9 65.7,36.9 65.7,43.5 		"/>
		<path class="st0" d="M72.7,40.7c0.2,0.3,0.2,0.7,0.2,1.1c0,0.5-0.2,0.9-0.6,1.3c-0.3,0.4-0.8,0.6-1.4,0.6c-0.7,0-1.2-0.3-1.6-0.8
			c-0.4-0.6-0.6-1.1-0.5-1.7h1c0,0.4,0.1,0.7,0.3,1c0.2,0.3,0.5,0.4,0.8,0.4s0.5-0.1,0.7-0.2s0.3-0.3,0.3-0.5s0-0.4-0.1-0.5
			c-0.1-0.2-0.2-0.3-0.3-0.4c-0.2-0.1-0.5-0.2-0.7-0.3c-0.2,0-0.5-0.1-0.8-0.3c-0.3-0.2-0.6-0.4-0.8-0.7C69,39.4,68.9,39,69,38.6
			c0-0.4,0.2-0.8,0.5-1.2s0.8-0.6,1.4-0.6c0.7,0,1.2,0.3,1.5,0.8s0.4,1,0.4,1.5h-1c0-0.3-0.1-0.6-0.2-0.8c-0.1-0.2-0.4-0.3-0.7-0.3
			c-0.3,0-0.5,0.1-0.7,0.2c-0.1,0.2-0.2,0.3-0.2,0.5s0,0.4,0.2,0.5c0.1,0.1,0.3,0.2,0.4,0.3c0.2,0.1,0.4,0.2,0.7,0.2
			c0.3,0.1,0.5,0.2,0.8,0.4C72.3,40.1,72.5,40.4,72.7,40.7"/>
		<polygon class="st0" points="73.5,43.4 73.5,36.9 77.2,36.9 77.2,38 74.5,38 74.5,39.5 77.1,39.5 77.1,40.7 74.5,40.7 74.5,42.3 
			77.2,42.3 77.2,43.5 		"/>
		<path class="st0" d="M81,43.5L79.6,41h-0.7v2.5h-1v-6.6H80c0.5,0,0.9,0.2,1.3,0.6c0.3,0.4,0.5,0.9,0.5,1.4c0,0.4-0.1,0.9-0.3,1.2
			c-0.2,0.4-0.5,0.6-0.8,0.7l1.5,2.6L81,43.5L81,43.5z M80.6,39.5c0.2-0.2,0.3-0.4,0.3-0.7c0-0.3-0.1-0.5-0.3-0.6
			C80.4,38.1,80.2,38,80,38h-1v1.7h1C80.2,39.8,80.4,39.7,80.6,39.5"/>
		<polygon class="st0" points="85.3,43.5 84.2,43.5 82.2,36.9 83.2,36.9 84.7,41.9 86.2,36.9 87.2,36.9 		"/>
		<polygon class="st0" points="87.7,43.4 87.7,36.9 88.7,36.9 88.7,43.5 		"/>
		<path class="st0" d="M94,41.2c-0.1,0.6-0.3,1.1-0.7,1.6c-0.4,0.5-0.9,0.8-1.6,0.8s-1.3-0.3-1.7-1c-0.4-0.7-0.6-1.5-0.6-2.5
			s0.2-1.8,0.6-2.5c0.4-0.6,1-1,1.7-1s1.3,0.3,1.6,0.8c0.4,0.5,0.6,1.1,0.6,1.5h-1c-0.1-0.3-0.2-0.5-0.4-0.8
			c-0.2-0.3-0.5-0.4-0.8-0.4c-0.4,0-0.8,0.2-1,0.6s-0.4,1-0.4,1.7s0.1,1.3,0.4,1.7c0.2,0.4,0.6,0.6,1,0.6c0.3,0,0.6-0.1,0.8-0.4
			c0.2-0.3,0.3-0.6,0.4-0.9H94V41.2z"/>
		<polygon class="st0" points="94.6,43.4 94.6,36.9 98.3,36.9 98.3,38 95.6,38 95.6,39.5 98.1,39.5 98.1,40.7 95.6,40.7 95.6,42.3 
			98.3,42.3 98.3,43.5 		"/>
	</g>
</g>
</svg>
